/* XPM */
static const char * erase_xpm[] = {
"24 24 4 1",
" 	c None",
".	c #E2E2E2",
"+	c #E3E3E3",
"@	c #E1E1E1",
"                        ",
"                        ",
"                        ",
"              .+        ",
"             +++.       ",
"            ++. +.      ",
"           .+.   +.     ",
"          ++@     +.    ",
"         ++.       +.   ",
"        .+.         +.  ",
"       ++@         .++  ",
"      .+.         .++   ",
"     +++          +.    ",
"    .+.          +.     ",
"   ++.          +.      ",
"  @+.          ..       ",
"  .+          ..        ",
"  .+.        .+         ",
"   .++++++++++   +++++  ",
"    .++++++++   ++++++  ",
"                        ",
"                        ",
"                        ",
"                        "};
