/* XPM */
static const char * selection_xpm[] = {
"30 30 3 1",
" 	c None",
".	c #E2E2E2",
"+	c #E3E3E3",
"                              ",
"                              ",
"                              ",
"       ..                     ",
"       .+.                    ",
"       .+++                   ",
"       .++++.                 ",
"       .++++++                ",
"       .++ .++.               ",
"       .++  .++.              ",
"       .++    .++.            ",
"       .++     +++.           ",
"       .++      ++++          ",
"       .++       .++..        ",
"       .++  ++++++++++.       ",
"       .++ .+++++++++++.      ",
"       .++.+++++              ",
"       .++.+.+++.             ",
"       .++++ .+++             ",
"       .+++  .+++.            ",
"       .++.   .++.            ",
"       .+.    .+++.           ",
"       ..      +++.           ",
"       ..      .+++.          ",
"                .++.          ",
"                .+++          ",
"                 +.           ",
"                              ",
"                              ",
"                              "};
